<svg xmlns="http://www.w3.org/2000/svg" version="1.1" id="svg10" width="61.333" height="69.333"><g id="g18"><path style="fill:#ffaabd;stroke:none;stroke-width:1px" d="M25.86 67.942h4v-16h2.667v16h4c0-4.44-1.71-13.281.666-17.111 2.099-3.381 8.152-4.903 11.334-7.333 9.195-7.024 13.263-17.518 12-28.89C59.283 3.418 47.972-1.37 37.86 1.72c-2.209.675-4.276 2.666-6.667 2.666-2.39 0-4.458-1.991-6.666-2.666-9.153-2.797-19.308.684-22.223 10.222-3.52 11.522 2.442 24.593 11.556 31.556 3.182 2.43 9.235 3.952 11.333 7.333 2.377 3.83.667 12.671.667 17.111m12-30.667h-1.333l-.667-12-7.333-5.555-20-9.111C12.26-1.27 24.312 9.275 31.193 9.275c2.85 0 5.346-2.744 8-3.555 7.113-2.174 14.62.129 16.89 7.555 3.248 10.633-8.667 7.6-14.223 11.334-4.412 2.964-4 7.976-4 12.666m17.333-12c-.876 11.103-16.43 24.424-28 20.89C12.131 41.561 5.86 29.128 5.86 14.608c8.142 0 12.067 2.62 18.667 7.11 2.238 1.524 5.876 2.764 7.333 5.112 2.284 3.68-1.731 12.219 4.667 13.555 6.408 1.34 5.143-9.218 7.333-12 1.948-2.475 8.401-2.57 11.333-3.11z" id="path18014"/></g></svg>