<svg version="1.0" xmlns="http://www.w3.org/2000/svg" width="682.667" height="682.667" viewBox="0 0 512 512"><path d="M235.5.6c-1.6.2-7.2.9-12.4 1.5C198 5 166.8 15.6 135.7 31.7 72.1 64.8 26.8 121.1 9.5 188.5c-6.1 23.7-7.8 38.6-7.9 67 0 18.8.4 28 1.7 37C13.1 358.7 43.9 414 93 453.3c25.7 20.7 62 38.3 71.4 34.7 7.5-2.8-.3-14.7-20.4-30.8-5.2-4.2-13.1-11.2-17.5-15.6-14.4-14.6-17.1-22.7-18.5-56.6-1.5-34.5-4.8-46.1-16.8-58.7-9.5-9.9-13.7-22.6-13-38.8.7-13.4 3.1-19.7 10.9-28 9.5-10.1 14.8-24.3 16.9-45.3 2.3-23 8.5-39.8 21.8-59.8C157.1 110.8 208.6 82 257.5 82c54.8 0 112.5 36.2 138.2 86.7 8.3 16.1 11 26.1 14.3 51.6 1.1 9.3 4.9 22.6 8.1 29 1.1 2 4.6 6.7 7.9 10.2 7.9 8.8 10.2 14.8 10.8 28.5.7 16.8-3 27.6-13.1 38.7-6.4 7.1-7.8 9.2-10.5 16.4-3.8 10.3-5.4 20.8-6.3 42.9-.5 11.8-1.5 24.5-2.3 28.3-3.2 14.3-10.1 23.4-32.2 41.8-7.8 6.5-16 14.1-18.3 16.8-14.1 16.8-4 20.1 21.9 7.1 66-33.1 118.9-110.5 131.7-192.5 2.4-15.4 2.4-47.8 0-63.5-8.6-55.2-34.2-104.8-75.1-145.5C391 37.2 340.3 11 285.5 2.5c-9.6-1.5-43.7-2.8-50-1.9z"/><path d="M254 112.8c-6.3.7-22.5 4.8-32.8 8.4-15.1 5.2-28.6 11.5-38.8 18.3-8.6 5.7-12.4 9.8-12.4 13.3 0 7.4 30.4 21.5 61 28.4 15 3.3 38 3.3 53 0 23.7-5.3 48.7-15.3 57-22.8 6.6-6 5.1-9.6-7.4-17.8-9.7-6.4-15.2-9.2-29.4-15.1-20.1-8.2-41.7-13.7-50.2-12.7zM146.8 190.6c-5.2 1.5-9.9 31.3-6.8 42.6 3.1 11.2 17.4 12.7 117.5 12.7 80.4 0 102.4-1.1 111.5-5.7 6.1-3.2 7.2-6.7 6.7-22.2-1-30.3-8.5-33.9-40.6-19-24.4 11.3-41.6 14.5-77.6 14.5-34.8 0-53-3.2-75.2-13.4-16.2-7.4-30-11.1-35.5-9.5zM133.8 279c-5.3.5-11.4 1.4-13.6 2-6.7 1.7-10.6 8.1-8.6 13.5 1 2.4 9 6.1 17.4 7.9 16.7 3.6 24.5 3.9 94.5 4.5l70 .6.6 27c.6 28 1.4 33.5 5.6 40.8 2.6 4.3 6 4.3 8.9-.1 3.4-4.9 4.4-10.9 5.4-31.3.4-10.2 1.3-20.4 1.9-22.7 1.6-5.7 5.3-9.7 10.7-11.6 4.5-1.5 8.1-2.1 33.5-5.1 21.2-2.5 39.2-9.1 35.8-13.1-1.7-2-6.5-3.1-23.9-5.3-15.8-2-45-4.2-80-6.2-24.8-1.3-145.4-2-158.2-.9z"/><path d="M139.3 365.7c.4 24.1.7 28.8 2.5 35.6 2.6 9.5 5.8 15.1 12.1 21 12.4 11.6 31.1 15.9 77.5 17.9 40.9 1.7 86.5-.8 105.9-5.8 15.1-3.8 27.1-12.3 32.1-22.7 5-10.2 6-16.7 6.1-36.7 0-20.7-1.3-27.5-6.3-33.1-3.9-4.3-10.3-5-15.2-1.7-5.6 3.7-8 9.8-9 23-1.6 21.8-8.7 33.6-25 41.2-5.6 2.6-7.9 3.1-16.5 3.4-8.3.3-11.1 0-16.3-1.7-17.3-5.9-27.8-19-32.2-40.1-2.5-12.2-4.4-17-7.8-20.3-7-6.7-15.9-7.7-68.1-7.7h-40.3l.5 27.7zM227.8 472c-12.5 1-20.7 3.1-23.4 6.1-2.6 2.9-2.3 10.5.7 15.8 6.6 11.8 29.5 18.9 57.4 17.8 21.5-.8 38.6-5.9 46.5-13.8 5.9-6 6.9-13.7 2.3-18.1-3.5-3.3-6.8-4.6-16.3-6.4-9.2-1.7-52.3-2.6-67.2-1.4z"/></svg>