<svg aria-hidden="true" style="width:0;height:0;position:absolute;overflow:hidden" xmlns="http://www.w3.org/2000/svg"><defs><symbol id="apples" viewBox="0 0 32 32"><path fill="#ffa5ba" style="fill:var(--color1,#ffa5ba)" d="M29.632 21.408a4.303 4.303 0 0 0-1.602-.303 4.38 4.38 0 0 0-1.679.333l.029-.011a4.293 4.293 0 0 1 1.172-2.478l-.001.001a1.063 1.063 0 0 0-.723-1.845c-.28 0-.534.108-.724.284l.001-.001c-1.229 1.139-1.709 2.752-1.875 4.077a3.883 3.883 0 0 0-1.056-.307l1.888-9.83a1.062 1.062 0 0 0-1.042-1.267h-.206c.096-.499.141-.998.134-1.472-.013-1.99-.896-3.494-2.368-4.013a4.48 4.48 0 0 0-1.68-.321c-.663 0-1.294.142-1.862.396l.029-.012c.147-.973.499-2.061 1.28-2.797a1.061 1.061 0 1 0-1.44-1.561c-1.318 1.229-1.811 2.97-1.984 4.39a4.383 4.383 0 0 0-2.729-.328l.028-.005c-1.094-1.568-2.618-2.291-4.096-1.939a4.589 4.589 0 0 0-2.889 1.936l-.01.016c-.41-.896-.704-1.997-.448-3.034A1.066 1.066 0 0 0 3.713.791l-.002.007c-.442 1.747.096 3.475.73 4.755a4.564 4.564 0 0 0-3.037 1.855l-.009.014A3.345 3.345 0 0 0 .723 9.44c0 .242.025.478.074.705l-.004-.022a1.064 1.064 0 0 0-.677 1.21l-.001-.007 3.808 19.808a1.07 1.07 0 0 0 1.05.864h15.232a1.07 1.07 0 0 0 1.05-.864l.038-.192c.288.192.595.358.928.486 1.261.467 2.445.275 3.04.115.32.083.794.179 1.363.179.512 0 1.088-.077 1.683-.294 2.362-.883 3.616-3.84 3.597-6.182-.019-1.901-.87-3.334-2.278-3.84zm-6.957-9.216c-.493 4.704-4.454 7.91-9.971 7.91s-9.478-3.206-9.971-7.91h19.942zM16.032 7.52a1.049 1.049 0 0 0 1.853.005l.003-.006c.032-.051.294-.474.774-.781.627-.41 1.344-.461 2.202-.16.851.301.954 1.517.96 2.029 0 .461-.064.96-.192 1.453h-7.13c.237-1.19.096-2.496-.288-3.667.393.022.753.148 1.057.35l-.008-.005c.309.205.565.463.762.764l.006.01zM3.078 8.717C3.628 8 4.262 7.648 5.011 7.648c.576 0 1.018.211 1.069.23.339.192.749.173 1.075-.032.333-.211.512-.595.48-.986 0-.077-.115-1.894 1.984-2.4.877-.211 1.626.755 1.907 1.178.806 1.222 1.222 3.11.781 4.416h-9.35c-.141-.448-.179-.941.122-1.338zM5.85 29.862 3.738 18.886c.141.128.282.262.429.384 2.208 1.907 5.242 2.95 8.538 2.95s6.33-1.043 8.538-2.944l.147-.134-.429 2.24-.064.019c-1.408.506-2.259 1.939-2.272 3.84-.013 1.165.294 2.483.896 3.622l-.192.998H5.851zm21.715-.422a3.03 3.03 0 0 1-1.941-.006l.021.006a1.034 1.034 0 0 0-.775.003l.007-.003c-.006.006-.96.352-1.92 0-1.331-.499-2.214-2.56-2.202-4.166 0-.467.09-1.581.858-1.85a2.67 2.67 0 0 1 .934-.173 2.077 2.077 0 0 1 1.78 1.015l.005.009a1.049 1.049 0 0 0 1.853.005l.003-.006c.16-.269.979-1.472 2.726-.851.768.269.851 1.382.858 1.85.013 1.606-.87 3.667-2.208 4.16z"/></symbol><symbol id="arrow-right" viewBox="0 0 32 32"><path d="M0 16a3.166 3.166 0 0 0 3.165 3.165h18.014l-4.871 4.871c-1.315 1.326-1.377 3.391-.144 4.624s3.309 1.182 4.624-.144l10.173-10.173c1.326-1.315 1.398-3.391.154-4.624l-.103-.082-.113-.144-10.04-10.03a3.25 3.25 0 0 0-2.354-1.005c-.868 0-1.657.34-2.241.894l.001-.001a3.247 3.247 0 0 0-.897 2.245c0 .922.383 1.755.999 2.347l.001.001 4.891 4.891H3.162A3.165 3.165 0 0 0-.003 16z"/></symbol><symbol id="arrow-up" viewBox="0 0 32 32"><path d="m27.41 12.59-10-10a1.995 1.995 0 0 0-2.82 0l-10 10a2 2 0 1 0 2.807 2.814L7.4 15.4 14 8.83V28a2 2 0 1 0 4 0V8.83l6.59 6.58a1.995 1.995 0 0 0 2.82 0 1.995 1.995 0 0 0 0-2.82z"/></symbol><symbol id="check" viewBox="0 0 32 32"><path fill="#fff" style="fill:var(--color3,#fff);stroke:var(--color3,#fff)" stroke="#fff" stroke-width=".492" d="m4.817 15.389-.169-.162-2.544 2.41 8.962 8.55L29.895 8.225l-2.527-2.411L11.066 21.35l-6.249-5.962z"/></symbol><symbol id="close" viewBox="0 0 32 32"><path fill="none" stroke="#fff" style="stroke:var(--color3,#fff)" stroke-width="2" d="m2.52 2 26.96 28M2 29.48 30 2.52"/></symbol><symbol id="email" viewBox="0 0 32 32"><path d="M26.667 5.333H5.334A2.663 2.663 0 0 0 2.681 8l-.013 16c0 1.467 1.2 2.667 2.667 2.667h21.333c1.467 0 2.667-1.2 2.667-2.667V8c0-1.467-1.2-2.667-2.667-2.667zM26.133 11l-9.427 5.893a1.346 1.346 0 0 1-1.413 0L5.866 11a1.132 1.132 0 1 1 1.2-1.92l8.933 5.587 8.933-5.587a1.132 1.132 0 1 1 1.2 1.92z"/></symbol><symbol id="facebook" viewBox="0 0 32 32"><path d="M22.138 15.971h-4.029v14.865H12V15.971H9.091v-5.236H12v-3.36c0-2.429 1.135-6.211 6.167-6.211l4.524.015v5.076h-3.287c-.538 0-1.295.276-1.295 1.425v3.069h4.567l-.538 5.222z"/></symbol><symbol id="github" viewBox="0 0 32 32"><path d="M16 0C7.2 0 0 7.2 0 16c0 7.504 5.264 14.304 12.256 16v-5.28a3.936 3.936 0 0 1-4.31-1.9l-.01-.02c-.368-.64-1.008-1.28-1.68-1.248l-.16-1.856c1.44-.128 2.704.88 3.44 2.128.336.56.72.896 1.216 1.04.48.128.976.064 1.568-.144.16-1.184.688-1.632 1.104-2.24v-.016c-4.16-.624-5.824-2.832-6.496-4.576a7.206 7.206 0 0 1-.433-2.483c0-1.728.597-3.317 1.596-4.572l-.011.015c.032-.032.08-.128.064-.192-.72-2.144.16-3.92.176-4.096.816.24.96-.256 3.552 1.328l.448.272c.192.112.128.048.32.032a14.935 14.935 0 0 1 3.36-.48c1.136.032 2.272.192 3.408.48l.144.032.128-.064c3.248-1.968 3.136-1.328 4-1.6.032.176.88 1.984.176 4.096-.096.288 2.816 2.944 1.216 7.232-.672 1.744-2.32 3.952-6.496 4.576.528.816 1.184 1.248 1.168 2.928V32C26.736 30.304 32 23.504 32 16c0-8.8-7.2-16-16-16z"/></symbol><symbol id="heart" viewBox="0 0 32 32"><path fill="#ffa5ba" style="fill:var(--color1,#ffa5ba);stroke:var(--color1,#ffa5ba)" stroke="#ffa5ba" stroke-width=".308" d="M2.511 11.163c.634 2.826 2.028 5.261 3.955 7.155l.002.002a18.561 18.561 0 0 0 5.888 4.12l.119.047 1.237.585v8.468h1.735v-7.902l.16.049c.234.062.566.062.8 0l.16-.049v7.902h1.723v-8.48l1.175-.535a19.346 19.346 0 0 0 6.01-4.139l.003-.003c2.782-2.831 4.215-6.055 4.215-9.563.012-3.846-2.012-6.997-5.212-8.074-.689-.24-1.058-.277-2.314-.265M2.511 11.163l13.618-8.308-.098-.074m-13.52 8.382a11.41 11.41 0 0 1-.204-2.172l.001-.11v.006c0-.818.062-1.637.191-2.203C3.225 3.496 5.447 1.133 8.321.53m-5.81 10.633L8.32.529M22.166.48zm0 0c-.658.006-1.071.025-1.446.074-1.663.311-3.13.989-4.368 1.949l.023-.017-.345.295m.001.001-.542-.4C13.815 1.151 12.104.554 10.092.474a15.02 15.02 0 0 0-1.04 0c-.308 0-.585.025-.732.062m7.711 2.246L8.32.53m6.683 3.704c-.234-.234-.665-.542-1.138-.831a9.466 9.466 0 0 0-1.274-.695l-.062-.025a10.17 10.17 0 0 0-1.502-.418c-1.969-.363-3.489.025-4.825 1.212a6.759 6.759 0 0 0-1.013 1.147l-.014.022c.204.048.595.119.988.182l.163.021c1.231.185 2.185.449 3.212.942 1.015.492 2.098 1.212 3.588 2.326.609.468 1.631 1.065 2.652 1.538v.006c.77.379 1.316.672 1.854.978l-.186-.098c.095.059.175.116.252.177l-.006-.005c.273.282.453.655.492 1.07l.001.007c.086.511.105 1.28.105 2.566 0 1.169 0 1.785.031 2.135.018.178.037.271.062.332s.049.092.098.135c.246.246.578.234.763.031.049-.055.098-.135.123-.462.031-.314.037-.837.037-1.723 0-1.169.031-1.883.16-2.375a1.64 1.64 0 0 1 .289-.615c.129-.178.295-.32.492-.468.197-.142.369-.234.646-.308.271-.068.64-.123 1.237-.191 1.865-.209 2.942-.449 4.234-.942.406-.148.702-.265.923-.369.228-.105.363-.185.443-.271a.503.503 0 0 0 .135-.306v-.002l.002-.19c0-.747-.093-1.473-.267-2.166l.013.061c-.714-2.683-2.923-4.554-5.323-4.554-1.785 0-3.963.837-5.311 2.055a5.632 5.632 0 0 1-.572.462.968.968 0 0 1-.488.184h-.004a.921.921 0 0 1-.492-.154 3.814 3.814 0 0 1-.517-.431zm-4.141 4.363C9.631 7.68 8.277 7.009 7.096 6.72a13.699 13.699 0 0 0-2.486-.337l-.031-.001c-.078 0-.155.007-.23.02l.008-.001a1.994 1.994 0 0 0-.148.492 10.716 10.716 0 0 0-.145 2.882l-.003-.039c.314 2.929 1.588 5.403 4.031 7.748a18.653 18.653 0 0 0 6.915 4.195l.132.039.862.308.874-.308c2.65-.916 4.929-2.285 6.86-4.033l-.017.015c1.249-1.169 1.889-1.969 2.708-3.372h.006a14.59 14.59 0 0 0 1.221-2.902l.028-.107c-1.556.625-3.36 1.065-5.241 1.238l-.076.006-.062.006c-.32.031-.548.049-.714.092s-.246.105-.308.215c-.068.123-.111.326-.129.677-.018.32-.018.738-.018 1.311v.123c0 1.095-.012 1.742-.092 2.185a1.886 1.886 0 0 1-.191.554 1.988 1.988 0 0 1-.326.412l-.001.001c-.24.246-.474.431-.738.542a2.06 2.06 0 0 1-.868.166c-.498 0-.923-.098-1.286-.32a2.213 2.213 0 0 1-.825-.97l-.006-.014c-.105-.222-.166-.431-.203-.862-.031-.425-.037-1.065-.037-2.154 0-.911-.012-1.538-.031-1.957a4.757 4.757 0 0 0-.085-.646l.005.03-.025-.018a8.298 8.298 0 0 0-.892-.47l-.055-.023a17.077 17.077 0 0 1-3.19-1.795l.052.035c.623.427.142.071-.34-.284L10.862 8.6z"/></symbol><symbol id="home" viewBox="0 0 32 32"><path fill="#d31342" style="fill:var(--color4,#d31342)" d="M31.6 16.773a1.331 1.331 0 0 0-.13-2.051l-.004-.003L17.173 3.066c-.315-.252-.72-.404-1.16-.404s-.845.152-1.164.407l.004-.003L.506 15.359a1.332 1.332 0 0 0-.081 2.052l.001.001.373.347c.587.587 1.547.64 2.133.16l1.067-.907v13.12c0 .8.72 1.467 1.6 1.467h5.573c.853 0 1.547-.667 1.547-1.467v-9.2h7.147v9.173c0 .8.613 1.467 1.467 1.467h5.92c.88 0 1.573-.667 1.573-1.467V17.172s.267.267.667.533c.347.32 1.12.08 1.707-.533l.4-.4z"/></symbol><symbol id="icecream" viewBox="0 0 32 32"><path fill="#ffa5ba" style="fill:var(--color1,#ffa5ba)" d="M7.776.141c-.352.192-.557.563-.557 1.011.006.813.211 1.555.614 2.195l.179.294-.339.384c-.384.422-.474.576-.64 1.088a3.186 3.186 0 0 0-.028 1.602l-.004-.022a2.693 2.693 0 0 0 2.594 1.983 2.68 2.68 0 0 0 1.855-.743l-.001.001.378-.314.346.179c.198.096.531.243.742.32l.384.141v.704c0 1.101.224 1.76.813 2.355.576.589 1.498.896 2.285.762.57-.102 1.12-.384 1.491-.768.589-.589.813-1.248.813-2.355V8.26l.384-.134c.211-.083.544-.23.742-.326l.346-.179.378.32a2.69 2.69 0 0 0 4.444-1.222L25 6.7c.128-.429.115-1.178-.026-1.587a2.462 2.462 0 0 0-.646-1.088l-.339-.384.179-.294c.403-.64.608-1.382.614-2.195 0-.448-.205-.819-.557-1.011L23.969 0H8.033l-.262.141zm14.733 1.958c0 .019-.179.314-.397.666-.653 1.024-.627 1.254.237 2.17.314.326.602.659.64.736.237.461-.23 1.037-.742.915-.128-.026-.397-.243-.787-.627-.787-.774-1.056-.864-1.664-.518-.571.342-1.233.653-1.925.898l-.078.024c-.608.173-.813.307-.973.64-.128.256-.141.358-.141 1.363 0 1.229-.051 1.427-.403 1.6-.256.128-.301.128-.55 0-.352-.173-.403-.371-.403-1.6 0-1.005-.006-1.107-.128-1.363-.173-.326-.384-.467-.986-.64a7.524 7.524 0 0 1-1.741-.774c-.403-.262-.762-.365-1.043-.314-.179.038-.365.186-.858.666-.403.39-.691.621-.819.646-.512.122-.973-.461-.742-.915.045-.077.333-.41.646-.736.864-.915.896-1.139.237-2.176-.218-.346-.397-.64-.397-.659 0-.026 2.931-.038 6.509-.038 3.584 0 6.509.013 6.509.038zM5.926 13.203c-.32.218-.486.512-.486.845 0 .224 3.117 16.928 3.232 17.28.051.192.282.422.518.544C9.42 32 9.574 32 16 32c6.419 0 6.579 0 6.81-.128.237-.128.467-.352.518-.544.115-.352 3.232-17.056 3.232-17.28 0-.326-.173-.627-.486-.845l-.205-.141H6.131l-.205.141zm18.202 2.285c-.064.499-.416 1.587-.678 2.08-1.28 2.374-3.712 3.821-6.733 3.987-2.278.128-4.205-.333-5.824-1.395a7.063 7.063 0 0 1-2.235-2.397l-.018-.035a8.104 8.104 0 0 1-.766-2.187l-.009-.053-.045-.358h16.358l-.045.358zM9.83 21.92c2.63 1.773 6.566 2.24 9.882 1.165a10.584 10.584 0 0 0 3.181-1.683c.275-.218.294-.218.269-.083l-.806 4.243-.8 4.23-.032.147H10.478l-.032-.147-.8-4.224-.806-4.25c-.026-.134-.006-.134.269.083.16.128.486.352.723.512z"/></symbol><symbol id="ice-cream-svgrepo-com" viewBox="0 0 32 32"><path d="M31.448 20.69h-.552v-3.034c0-1.321-1.676-3.504-2.011-3.928a.554.554 0 0 0-.432-.21h-2.459l3.187-6.373a.55.55 0 0 0-.49-.799h-1.007a3.561 3.561 0 0 0 1.006-2.483c0-1.977-1.608-3.586-3.586-3.586s-3.586 1.608-3.586 3.586c0 .963.385 1.838 1.004 2.483h-1.004a.551.551 0 0 0-.492.801l-.001-.003 3.187 6.375h-3.797a.552.552 0 0 0-.552.552v6.621H18.76V7.451a.552.552 0 0 0-.552-.552H.553a.552.552 0 0 0-.552.552v20.966c0 .305.247.552.552.552h1.706c.263 1.564 1.624 2.759 3.26 2.759s2.997-1.195 3.26-2.759h13.342c.263 1.564 1.624 2.759 3.26 2.759s2.997-1.195 3.26-2.759h2.809a.552.552 0 0 0 .552-.552v-7.172a.552.552 0 0 0-.552-.552zM9.931 8h3.31v4.411c0 .914-.742 1.658-1.655 1.658s-1.655-.744-1.655-1.658V8zM5.517 8h3.31v4.411c0 .914-.742 1.658-1.655 1.658s-1.655-.744-1.655-1.658V8zM1.103 8h3.31v4.411c0 .914-.742 1.658-1.655 1.658s-1.655-.744-1.655-1.658V8zm4.414 22.621c-1.217 0-2.207-.99-2.207-2.207s.99-2.207 2.207-2.207 2.207.99 2.207 2.207-.99 2.207-2.207 2.207zm12.138-9.38v6.621H8.78c0-.013-.006-.024-.008-.036a3.283 3.283 0 0 0-.379-1.047l.008.016-.038-.063a3.278 3.278 0 0 0-.302-.431l.004.006-.009-.013a3.25 3.25 0 0 0-.364-.369l-.043-.039a3.44 3.44 0 0 0-.41-.293l-.074-.044a3.2 3.2 0 0 0-.427-.208l-.022-.008-.082-.032a3.07 3.07 0 0 0-.476-.134l-.021-.003-.066-.009a3.168 3.168 0 0 0-.554-.05h-.001a3.42 3.42 0 0 0-.577.053l.02-.003-.065.009a3.07 3.07 0 0 0-.497.139l-.082.03a3.384 3.384 0 0 0-.467.224l.016-.008-.072.044a3.36 3.36 0 0 0-.41.293l-.043.039a3.253 3.253 0 0 0-.364.369l-.009.011c-.11.134-.21.277-.3.429l-.036.061c-.17.297-.299.642-.367 1.009l-.003.02c-.002.014-.008.025-.009.038H1.102V14.606a2.712 2.712 0 0 0 1.655.566h.001c.906 0 1.704-.445 2.207-1.121a2.75 2.75 0 0 0 2.207 1.121c.906 0 1.702-.445 2.207-1.122.504.678 1.302 1.122 2.207 1.122s1.702-.445 2.207-1.122A2.746 2.746 0 0 0 16 15.172c.624 0 1.193-.216 1.655-.568v6.636zm0-8.83c0 .914-.742 1.658-1.655 1.658s-1.655-.744-1.655-1.658V8h3.31v4.411zm9.379 2.21h1.148c.683.902 1.611 2.36 1.611 3.034v3.034h-2.759V14.62zm-1.931-1.786-.449-.899 1.365-.933-.916 1.832zm0-11.456c1.37 0 2.483 1.114 2.483 2.483s-1.114 2.483-2.483 2.483-2.483-1.113-2.483-2.483 1.113-2.483 2.483-2.483zm-2.694 6.069h3.038l-2.459 1.159-.579-1.159zm1.747 3.493-.673-1.348 4.24-1.997-.687 1.373-2.88 1.97zm-3.19 3.68h4.966v6.069h-4.966v-6.069zm4.413 16c-1.217 0-2.207-.99-2.207-2.207s.99-2.207 2.207-2.207 2.207.99 2.207 2.207-.99 2.207-2.207 2.207zm5.518-2.759h-2.253c-.002-.013-.008-.024-.009-.036a3.283 3.283 0 0 0-.379-1.047l.008.016-.038-.063a3.278 3.278 0 0 0-.302-.431l.004.006-.009-.013a3.327 3.327 0 0 0-.363-.369l-.044-.039a3.285 3.285 0 0 0-.41-.293l-.073-.044a3.17 3.17 0 0 0-.429-.208l-.022-.008-.082-.032a3.07 3.07 0 0 0-.476-.134l-.021-.003-.065-.009a3.185 3.185 0 0 0-1.111 0l-.066.009c-.17.032-.336.08-.497.139l-.082.03a3.04 3.04 0 0 0-.449.216l-.074.044a3.44 3.44 0 0 0-.41.293l-.043.039a3.253 3.253 0 0 0-.364.369l-.009.011a3.412 3.412 0 0 0-.334.49c-.171.297-.3.642-.369 1.009l-.003.02c-.002.014-.006.025-.009.038h-3.356v-6.069h7.172v.02h1.103v-.02h3.862v6.069z"/><path d="M23.724 22.345h2.207v1.103h-2.207zM1.655 16.276v7.172c0 .305.247.552.552.552h14.345a.552.552 0 0 0 .552-.552v-7.172a.552.552 0 0 0-.552-.552H2.207a.552.552 0 0 0-.552.552zm1.104.552H16v6.069H2.759v-6.069z"/><path d="m4.575 18.093-.552.552a.55.55 0 1 0 .78.779l.552-.552a.55.55 0 1 0-.78-.779z"/></symbol><symbol id="instagram" viewBox="0 0 32 32"><path d="M31.968 9.408a11.64 11.64 0 0 0-.763-3.968l.027.08a7.858 7.858 0 0 0-1.854-2.83l-.002-.002c-.8-.8-1.76-1.44-2.832-1.84a11.483 11.483 0 0 0-3.875-.752h-.013c-1.458-.07-3.167-.109-4.885-.109-.6 0-1.199.005-1.797.014l.09-.001c-4.352 0-4.896.016-6.592.096C7.76.16 6.592.448 5.584.832a8.038 8.038 0 0 0-2.831 1.855l-.001.001A8.005 8.005 0 0 0 .915 5.466l-.019.054A11.473 11.473 0 0 0 .16 9.397v.011c-.07 1.458-.109 3.167-.109 4.885 0 .6.005 1.199.014 1.797L.064 16c0 4.352 0 4.896.08 6.592.03 1.405.303 2.737.779 3.968l-.027-.08a7.782 7.782 0 0 0 1.856 2.832 8.005 8.005 0 0 0 2.778 1.837l.054.019c1.008.384 2.176.656 3.872.736 1.712.08 2.24.096 6.592.096s4.896-.016 6.608-.096a11.648 11.648 0 0 0 3.952-.763l-.08.027a8.242 8.242 0 0 0 4.669-4.633l.019-.055c.384-1.024.672-2.176.736-3.888.08-1.696.096-2.24.096-6.592 0-4.336 0-4.88-.08-6.592zm-2.88 13.072c-.064 1.552-.32 2.4-.544 2.96a5.34 5.34 0 0 1-3.004 3.027l-.036.013c-.56.224-1.424.48-2.976.544-1.68.08-2.192.096-6.464.096a114.015 114.015 0 0 1-6.706-.105l.242.009c-1.568-.064-2.4-.32-2.96-.544a4.96 4.96 0 0 1-1.839-1.199L4.8 27.28a4.975 4.975 0 0 1-1.189-1.79l-.011-.034a8.64 8.64 0 0 1-.544-2.972v-.004a108.653 108.653 0 0 1-.095-6.546l-.001.083c0-4.272.016-4.784.096-6.464.064-1.568.32-2.4.544-2.976a4.774 4.774 0 0 1 1.2-1.824 4.98 4.98 0 0 1 1.806-1.189l.034-.011c.56-.224 1.408-.48 2.976-.544 1.68-.08 2.192-.096 6.448-.096 4.288 0 4.8 0 6.464.096 1.568.064 2.4.32 2.976.544a4.831 4.831 0 0 1 1.84 1.2 4.966 4.966 0 0 1 1.2 1.824c.208.576.48 1.424.544 2.976.08 1.68.096 2.192.096 6.464s-.016 4.768-.096 6.464z"/><path d="M16.064 7.776a8.224 8.224 0 1 0 0 16.448 8.224 8.224 0 1 0 0-16.448zm0 13.552a5.327 5.327 0 1 1 0-10.656 5.327 5.327 0 1 1 0 10.656zM26.528 7.456a1.92 1.92 0 0 1-3.84 0 1.92 1.92 0 0 1 3.84 0z"/></symbol><symbol id="linkedin" viewBox="0 0 32 32"><path d="M32 32V20.256c0-5.728-1.232-10.16-7.952-10.16a6.957 6.957 0 0 0-6.255 3.423l-.018.032h-.096v-2.912h-6.368v21.36h6.64V21.423c0-2.784.528-5.488 3.968-5.488 3.408 0 3.456 3.184 3.456 5.664v10.4h6.624zM.528 10.64h6.64V32H.528V10.64zM3.84 0A3.84 3.84 0 0 0 0 3.84v.016a3.872 3.872 0 0 0 3.838 3.872h.002c2.128 0 3.84-1.76 3.84-3.888A3.84 3.84 0 0 0 3.84 0z"/></symbol><symbol id="logo" viewBox="0 0 127 32"><path fill="#fff" style="fill:var(--color1,#fff)" d="M31.36 16.32C31.36 24.98 24.483 32 16 32S.64 24.98.64 16.32 7.517.64 16 .64s15.36 7.02 15.36 15.68z"/><path fill="#d41443" style="fill:var(--color2,#d41443)" d="M11.846.563C4.441 2.803 0 8.633 0 16c0 6.016 3.091 11.277 8.179 13.901 2.637 1.344 3.027.384.576-1.472-1.734-1.408-2.061-2.048-2.061-4.422 0-1.664-.384-3.008-.96-3.52-1.165-.96-1.293-3.462-.128-4.358.448-.384.896-1.664.96-2.822.32-4.224 4.896-8.198 9.472-8.198 4.57 0 9.139 3.968 9.466 8.198.064 1.152.512 2.432.96 2.816 1.165.896 1.037 3.398-.128 4.358-.576.512-.96 1.856-.96 3.52 0 2.374-.32 3.014-2.067 4.429-2.701 2.112-1.926 2.88 1.101 1.024 4.25-2.618 7.398-8.333 7.398-13.389 0-10.118-10.56-18.323-19.968-15.501z"/><path fill="#d41443" style="fill:var(--color2,#d41443)" d="M12.685 8c-1.152.512-2.125 1.152-2.125 1.536 0 .704 3.482 1.984 5.472 1.984 1.997 0 5.478-1.28 5.478-1.984 0-.768-3.994-2.502-5.606-2.502-.64.064-2.125.448-3.219.96zm33.165 3.328c-.96.256-1.152 1.088-1.152 5.696v5.389h4.57l-.192-5.574c-.192-5.83-.454-6.278-3.226-5.51zm7.539.32c-2.131 1.152-2.899 2.56-2.899 5.312 0 3.782 2.061 5.581 5.856 5.325 2.579-.192 2.835-.384 3.027-1.984.192-1.606.064-1.734-1.933-1.606-2.061.192-2.125.064-2.125-2.048s.128-2.24 1.997-2.048c1.549.128 2.125-.128 2.387-1.088.128-.646 0-1.542-.384-1.926-.909-.896-4.256-.896-5.926.064zm7.661.064c-.192.512-.256 3.008-.128 5.632l.192 4.749H65.3c3.866 0 4.186-.128 4.378-1.472.192-1.216-.064-1.408-2.061-1.408-1.286 0-2.317-.326-2.317-.646 0-.384.896-.64 1.933-.64 1.478 0 1.933-.256 1.933-1.28s-.448-1.28-1.933-1.28c-1.03 0-1.933-.32-1.933-.64 0-.384.832-.64 1.869-.64 1.805 0 3.027-1.414 2.253-2.63-.576-.96-7.987-.704-8.371.256zm12.94-.192c-2.125.832-2.957 2.304-3.021 4.992-.064 4.614 1.798 6.221 6.63 5.773 1.869-.128 2.189-.448 2.189-1.792 0-1.408-.256-1.606-2.061-1.408-1.549.128-2.125-.07-2.445-1.094-.576-1.984.64-3.584 2.701-3.584 1.229 0 1.869-.384 1.997-1.222.448-2.048-2.829-3.008-5.99-1.664zm7.93-.256c-.326.256-.518 2.88-.518 5.824v5.389l2.061-.192c1.606-.128 2.189-.576 2.509-1.792l.384-1.606.512 1.728c.39 1.472.845 1.792 2.515 1.792 2.771 0 3.091-.448 1.933-2.688-.704-1.408-.832-2.112-.32-2.624.832-.832.896-3.654.128-4.87-.64-1.024-8.371-1.856-9.21-.96zm5.274 3.456c0 .704-.256 1.28-.64 1.28-.32 0-.646-.576-.646-1.28s.32-1.28.64-1.28c.384 0 .646.576.646 1.28zm6.246-3.392c-.256.192-.448 2.816-.448 5.76v5.325h4.186c4.058 0 4.186-.064 4.186-1.6 0-1.344-.32-1.6-1.933-1.6-1.03 0-1.933-.326-1.933-.646 0-.384.704-.64 1.613-.64 1.152 0 1.606-.32 1.606-1.28s-.448-1.28-1.606-1.28c-.902 0-1.613-.32-1.613-.64 0-.384.902-.64 1.933-.64 1.606 0 1.933-.256 1.933-1.606 0-1.536-.192-1.6-3.738-1.6-2.061 0-3.994.192-4.186.448zm13.011-.064c-1.158.32-4.122 8.838-3.546 10.253.512 1.28 3.418 1.152 4.186-.192.576-1.088.646-1.088 1.805 0 1.485 1.28 4.704 1.472 4.704.256 0-.384-.646-2.95-1.485-5.574-1.286-4.23-1.67-4.806-3.027-4.934-.896 0-2.061.064-2.637.192zm1.799 5.824c-.192.64-.32.256-.32-.768 0-1.088.128-1.536.32-1.152.128.448.128 1.344 0 1.92zm7.475-5.76c-.576.192-.838 1.984-.838 5.696v5.389h1.869c1.606 0 1.926-.32 2.189-1.792.256-1.67.256-1.67.768-.32.256.832.902 1.472 1.357 1.472.512 0 1.222-.64 1.542-1.472.512-1.35.576-1.35.576.384.07 1.6.262 1.792 2.067 1.6l1.997-.192.064-5.318c.128-4.934.064-5.318-1.286-5.638-2.061-.512-3.802.704-4.384 3.072l-.448 2.112-.704-2.24c-.909-3.008-2.259-3.776-4.768-2.752zm-106.707.64c-.192.256-.384 1.088-.384 1.92 0 1.472.064 1.472 7.398 1.472 7.347 0 7.411 0 7.411-1.472 0-2.176-.582-2.432-2.643-1.408-2.317 1.216-7.213 1.216-9.536 0-1.024-.512-1.99-.704-2.246-.512zm-1.869 5.696c-1.03 1.094.704 1.542 5.728 1.542h5.414v2.24c0 1.216.32 2.24.64 2.24.384 0 .64-.96.64-2.176 0-2.112.134-2.24 2.579-2.432 1.421-.128 2.579-.512 2.579-.832 0-.704-16.87-1.28-17.581-.576z"/><path fill="#d41443" style="fill:var(--color2,#d41443)" d="M8.627 23.309c0 3.52 1.222 4.224 7.405 4.224s7.411-.704 7.411-4.224c0-1.536-.32-2.176-.966-2.176-.576 0-.966.576-.966 1.536 0 3.584-4.896 3.904-5.606.384-.32-1.856-.512-1.92-3.795-1.92H8.628v2.176zm3.994 7.238c.384 2.048 6.957 1.856 6.957-.128 0-.704-.832-.96-3.61-.96-3.021 0-3.539.192-3.347 1.088z"/></symbol><symbol id="menu" viewBox="0 0 32 32"><path stroke-width="1.6" d="M0 6.4h32M0 16h32M0 25.6h32"/></symbol><symbol id="person" viewBox="0 0 32 32"><path d="M16 16c2.947 0 5.333-2.387 5.333-5.333S18.946 5.334 16 5.334c-2.947 0-5.333 2.387-5.333 5.333S13.054 16 16 16zm0 2.667c-3.56 0-10.667 1.787-10.667 5.333v1.333c0 .733.6 1.333 1.333 1.333h18.667c.733 0 1.333-.6 1.333-1.333V24c0-3.547-7.107-5.333-10.667-5.333z"/></symbol><symbol id="phone" viewBox="0 0 32 32"><path d="m24.882 19.773-3.268-.373a2.561 2.561 0 0 0-2.11.733L17.137 22.5a19.357 19.357 0 0 1-8.478-8.478l2.38-2.38a2.561 2.561 0 0 0 .733-2.11l-.373-3.242a2.575 2.575 0 0 0-2.56-2.277H6.613c-1.454 0-2.663 1.209-2.573 2.663.682 10.987 9.469 19.761 20.443 20.443 1.454.09 2.663-1.119 2.663-2.573V22.32a2.55 2.55 0 0 0-2.264-2.547z"/></symbol><symbol id="pointer" viewBox="0 0 32 32"><path stroke-linejoin="round" stroke-linecap="round" stroke-width="6.4" d="M9.6 3.2 22.4 16 9.6 28.8"/></symbol><symbol id="telegram" viewBox="0 0 32 32"><path d="m12.611 19.665-.495 6.444c.713 0 1.018-.276 1.382-.611l3.287-2.938 6.836 4.655c1.236.655 2.124.32 2.458-1.062l4.465-19.607c.393-1.731-.669-2.4-1.891-1.978L2.34 13.993C.551 14.633.58 15.564 2.049 16l6.72 1.949 15.636-9.12c.727-.465 1.396-.204.844.247l-12.64 10.589z"/></symbol></defs></svg>