<?xml version="1.0" encoding="UTF-8" standalone="no"?>
<svg
   xmlns:dc="http://purl.org/dc/elements/1.1/"
   xmlns:cc="http://creativecommons.org/ns#"
   xmlns:rdf="http://www.w3.org/1999/02/22-rdf-syntax-ns#"
   xmlns:svg="http://www.w3.org/2000/svg"
   xmlns="http://www.w3.org/2000/svg"
   xmlns:sodipodi="http://sodipodi.sourceforge.net/DTD/sodipodi-0.dtd"
   xmlns:inkscape="http://www.inkscape.org/namespaces/inkscape"
   version="1.1"
   id="svg10"
   width="61.333332"
   height="69.333336"
   viewBox="0 0 61.333332 69.333336"
   sodipodi:docname="Vector.svg"
   inkscape:version="1.0.2-2 (e86c870879, 2021-01-15)">
  <metadata
     id="metadata16">
    <rdf:RDF>
      <cc:Work
         rdf:about="">
        <dc:format>image/svg+xml</dc:format>
        <dc:type
           rdf:resource="http://purl.org/dc/dcmitype/StillImage" />
        <dc:title></dc:title>
      </cc:Work>
    </rdf:RDF>
  </metadata>
  <defs
     id="defs14" />
  <sodipodi:namedview
     pagecolor="#ffffff"
     bordercolor="#666666"
     borderopacity="1"
     objecttolerance="10"
     gridtolerance="10"
     guidetolerance="10"
     inkscape:pageopacity="0"
     inkscape:pageshadow="2"
     inkscape:window-width="1350"
     inkscape:window-height="728"
     id="namedview12"
     showgrid="false"
     inkscape:zoom="1.3130768"
     inkscape:cx="178.30763"
     inkscape:cy="72.267117"
     inkscape:window-x="0"
     inkscape:window-y="0"
     inkscape:window-maximized="0"
     inkscape:current-layer="g18" />
  <g
     inkscape:groupmode="layer"
     inkscape:label="Image"
     id="g18">
    <path
       style="fill:#ffaabd;stroke:none;stroke-width:1"
       d="m 25.859954,67.942036 h 4 v -16 h 2.666667 v 16 h 4 c 0,-4.43987 -1.7104,-13.28134 0.666666,-17.11107 2.098667,-3.3812 8.151734,-4.90307 11.333333,-7.33333 9.195067,-7.024 13.263467,-17.517737 12,-28.888938 C 59.28302,3.4168435 47.971554,-1.3698535 37.859954,1.7198035 c -2.208667,0.67488 -4.275867,2.666667 -6.666667,2.666667 -2.390933,0 -4.457999,-1.991787 -6.666666,-2.666667 -9.1528,-2.796684 -19.3079592,0.684614 -22.2222258,10.2222275 -3.5205599,11.521868 2.4415066,24.593465 11.5555598,31.555605 3.181599,2.43026 9.234666,3.95213 11.333333,7.33333 2.377066,3.82973 0.666666,12.6712 0.666666,17.11107 m 12,-30.66667 H 36.526621 L 35.859954,25.275365 28.526621,19.719765 8.526622,10.608698 c 3.733146,-11.8781855 15.785732,-1.3333335 22.666665,-1.3333335 2.850134,0 5.346,-2.744627 8,-3.55556 7.1128,-2.173347 14.619733,0.129066 16.888933,7.5555605 3.2488,10.632534 -8.665733,7.600133 -14.222266,11.333334 -4.4124,2.964533 -4,7.976137 -4,12.666667 M 55.193287,25.275365 C 54.316754,36.378436 38.762621,49.699366 27.193288,46.164296 12.130528,41.561766 5.8599551,29.128965 5.8599551,14.608698 c 8.1417329,0 12.0667989,2.619467 18.6666659,7.111067 2.238133,1.5232 5.876,2.7632 7.333333,5.1112 2.284133,3.679871 -1.731333,12.218671 4.666667,13.555471 6.4088,1.3392 5.1432,-9.218 7.333333,-12.000004 1.9484,-2.474933 8.401466,-2.570933 11.333333,-3.111067 z"
       id="path18014" />
    <path
       style="fill:#000000;stroke-width:1"
       id="path22"
       d="" />
  </g>
</svg>
