<svg width="199" height="50" fill="none" xmlns="http://www.w3.org/2000/svg"><ellipse cx="25" cy="25.5" rx="24" ry="24.5" fill="#fff"/><path d="M18.51.88C6.94 4.38 0 13.49 0 25c0 9.4 4.83 17.62 12.78 21.72 4.12 2.1 4.73.6.9-2.3-2.71-2.2-3.22-3.2-3.22-6.91 0-2.6-.6-4.7-1.5-5.5-1.82-1.5-2.02-5.41-.2-6.81.7-.6 1.4-2.6 1.5-4.41.5-6.6 7.65-12.81 14.8-12.81 7.14 0 14.28 6.2 14.79 12.81.1 1.8.8 3.8 1.5 4.4 1.82 1.4 1.62 5.31-.2 6.81-.9.8-1.5 2.9-1.5 5.5 0 3.71-.5 4.71-3.23 6.92-4.22 3.3-3.01 4.5 1.72 1.6C44.78 41.93 49.7 33 49.7 25.1 49.7 9.29 33.2-3.53 18.5.88Z" fill="#D41443"/><path d="M19.82 12.5c-1.8.8-3.32 1.8-3.32 2.4 0 1.1 5.44 3.1 8.55 3.1 3.12 0 8.56-2 8.56-3.1 0-1.2-6.24-3.91-8.76-3.91-1 .1-3.32.7-5.03 1.5ZM71.64 17.7c-1.5.4-1.8 1.7-1.8 8.9v8.42h7.14l-.3-8.71c-.3-9.11-.71-9.81-5.04-8.61ZM83.42 18.2c-3.33 1.8-4.53 4-4.53 8.3 0 5.91 3.22 8.72 9.15 8.32 4.03-.3 4.43-.6 4.73-3.1.3-2.51.1-2.71-3.02-2.51-3.22.3-3.32.1-3.32-3.2 0-3.3.2-3.5 3.12-3.2 2.42.2 3.32-.2 3.73-1.7.2-1.01 0-2.41-.6-3.01-1.42-1.4-6.65-1.4-9.26.1ZM95.39 18.3c-.3.8-.4 4.7-.2 8.8l.3 7.42h6.54c6.04 0 6.54-.2 6.84-2.3.3-1.9-.1-2.2-3.22-2.2-2.01 0-3.62-.51-3.62-1.01 0-.6 1.4-1 3.02-1 2.31 0 3.02-.4 3.02-2s-.7-2-3.02-2c-1.61 0-3.02-.5-3.02-1 0-.6 1.3-1 2.92-1 2.82 0 4.73-2.21 3.52-4.11-.9-1.5-12.48-1.1-13.08.4ZM115.61 18c-3.32 1.3-4.62 3.6-4.72 7.8-.1 7.21 2.81 9.72 10.36 9.02 2.92-.2 3.42-.7 3.42-2.8 0-2.2-.4-2.51-3.22-2.2-2.42.2-3.32-.11-3.82-1.71-.9-3.1 1-5.6 4.22-5.6 1.92 0 2.92-.6 3.12-1.91.7-3.2-4.42-4.7-9.36-2.6ZM128 17.6c-.51.4-.81 4.5-.81 9.1v8.42l3.22-.3c2.51-.2 3.42-.9 3.92-2.8l.6-2.51.8 2.7c.61 2.3 1.32 2.8 3.93 2.8 4.33 0 4.83-.7 3.02-4.2-1.1-2.2-1.3-3.3-.5-4.1 1.3-1.3 1.4-5.71.2-7.61-1-1.6-13.08-2.9-14.39-1.5Zm8.24 5.4c0 1.1-.4 2-1 2-.5 0-1.01-.9-1.01-2s.5-2 1-2c.6 0 1.01.9 1.01 2ZM146 17.7c-.4.3-.7 4.4-.7 9v8.32h6.54c6.34 0 6.54-.1 6.54-2.5 0-2.1-.5-2.5-3.02-2.5-1.61 0-3.02-.51-3.02-1.01 0-.6 1.1-1 2.52-1 1.8 0 2.51-.5 2.51-2s-.7-2-2.51-2c-1.41 0-2.52-.5-2.52-1 0-.6 1.41-1 3.02-1 2.51 0 3.02-.4 3.02-2.51 0-2.4-.3-2.5-5.84-2.5-3.22 0-6.24.3-6.54.7ZM166.33 17.6c-1.81.5-6.44 13.81-5.54 16.02.8 2 5.34 1.8 6.54-.3.9-1.7 1.01-1.7 2.82 0 2.32 2 7.35 2.3 7.35.4 0-.6-1.01-4.61-2.32-8.71-2.01-6.61-2.61-7.51-4.73-7.71-1.4 0-3.22.1-4.12.3Zm2.81 9.1c-.3 1-.5.4-.5-1.2 0-1.7.2-2.4.5-1.8.2.7.2 2.1 0 3ZM180.82 17.7c-.9.3-1.31 3.1-1.31 8.9v8.42h2.92c2.51 0 3.01-.5 3.42-2.8.4-2.61.4-2.61 1.2-.5.4 1.3 1.41 2.3 2.12 2.3.8 0 1.91-1 2.41-2.3.8-2.11.9-2.11.9.6.11 2.5.41 2.8 3.23 2.5l3.12-.3.1-8.31c.2-7.71.1-8.31-2.01-8.81-3.22-.8-5.94 1.1-6.85 4.8l-.7 3.3-1.1-3.5c-1.42-4.7-3.53-5.9-7.45-4.3ZM14.09 18.7c-.3.4-.6 1.7-.6 3 0 2.3.1 2.3 11.56 2.3 11.48 0 11.58 0 11.58-2.3 0-3.4-.91-3.8-4.13-2.2-3.62 1.9-11.27 1.9-14.9 0-1.6-.8-3.11-1.1-3.51-.8ZM11.17 27.6c-1.61 1.71 1.1 2.41 8.95 2.41h8.46v3.5c0 1.9.5 3.5 1 3.5.6 0 1-1.5 1-3.4 0-3.3.21-3.5 4.03-3.8 2.22-.2 4.03-.8 4.03-1.3 0-1.1-26.36-2-27.47-.9Z" fill="#D41443"/><path d="M13.48 36.42c0 5.5 1.91 6.6 11.57 6.6s11.58-1.1 11.58-6.6c0-2.4-.5-3.4-1.51-3.4-.9 0-1.51.9-1.51 2.4 0 5.6-7.65 6.1-8.76.6-.5-2.9-.8-3-5.93-3h-5.44v3.4ZM19.72 47.73c.6 3.2 10.87 2.9 10.87-.2 0-1.1-1.3-1.5-5.64-1.5-4.72 0-5.53.3-5.23 1.7Z" fill="#D41443"/></svg>