<?xml version="1.0" standalone="no"?>
<!DOCTYPE svg PUBLIC "-//W3C//DTD SVG 20010904//EN"
 "http://www.w3.org/TR/2001/REC-SVG-20010904/DTD/svg10.dtd">
<svg version="1.0" xmlns="http://www.w3.org/2000/svg"
 width="512.000000pt" height="512.000000pt" viewBox="0 0 512.000000 512.000000"
 preserveAspectRatio="xMidYMid meet">
<metadata>
Created by potrace 1.14, written by Peter Selinger 2001-2017
</metadata>
<g transform="translate(0.000000,512.000000) scale(0.100000,-0.100000)"
fill="#000000" stroke="none">
<path d="M2355 5114 c-16 -2 -72 -9 -124 -15 -251 -29 -563 -135 -874 -296
-636 -331 -1089 -894 -1262 -1568 -61 -237 -78 -386 -79 -670 0 -188 4 -280
17 -370 98 -662 406 -1215 897 -1608 257 -207 620 -383 714 -347 75 28 -3 147
-204 308 -52 42 -131 112 -175 156 -144 146 -171 227 -185 566 -15 345 -48
461 -168 587 -95 99 -137 226 -130 388 7 134 31 197 109 280 95 101 148 243
169 453 23 230 85 398 218 598 293 436 808 724 1297 724 548 0 1125 -362 1382
-867 83 -161 110 -261 143 -516 11 -93 49 -226 81 -290 11 -20 46 -67 79 -102
79 -88 102 -148 108 -285 7 -168 -30 -276 -131 -387 -64 -71 -78 -92 -105
-164 -38 -103 -54 -208 -63 -429 -5 -118 -15 -245 -23 -283 -32 -143 -101
-234 -322 -418 -78 -65 -160 -141 -183 -168 -141 -168 -40 -201 219 -71 660
331 1189 1105 1317 1925 24 154 24 478 0 635 -86 552 -342 1048 -751 1455
-416 413 -923 675 -1471 760 -96 15 -437 28 -500 19z"/>
<path d="M2540 3992 c-63 -7 -225 -48 -328 -84 -151 -52 -286 -115 -388 -183
-86 -57 -124 -98 -124 -133 0 -74 304 -215 610 -284 150 -33 380 -33 530 0
237 53 487 153 570 228 66 60 51 96 -74 178 -97 64 -152 92 -294 151 -201 82
-417 137 -502 127z"/>
<path d="M1468 3214 c-52 -15 -99 -313 -68 -426 31 -112 174 -127 1175 -127
804 0 1024 11 1115 57 61 32 72 67 67 222 -10 303 -85 339 -406 190 -244 -113
-416 -145 -776 -145 -348 0 -530 32 -752 134 -162 74 -300 111 -355 95z"/>
<path d="M1338 2330 c-53 -5 -114 -14 -136 -20 -67 -17 -106 -81 -86 -135 10
-24 90 -61 174 -79 167 -36 245 -39 945 -45 l700 -6 6 -270 c6 -280 14 -335
56 -408 26 -43 60 -43 89 1 34 49 44 109 54 313 4 102 13 204 19 227 16 57 53
97 107 116 45 15 81 21 335 51 212 25 392 91 358 131 -17 20 -65 31 -239 53
-158 20 -450 42 -800 62 -248 13 -1454 20 -1582 9z"/>
<path d="M1393 1463 c4 -241 7 -288 25 -356 26 -95 58 -151 121 -210 124 -116
311 -159 775 -179 409 -17 865 8 1059 58 151 38 271 123 321 227 50 102 60
167 61 367 0 207 -13 275 -63 331 -39 43 -103 50 -152 17 -56 -37 -80 -98 -90
-230 -16 -218 -87 -336 -250 -412 -56 -26 -79 -31 -165 -34 -83 -3 -111 0
-163 17 -173 59 -278 190 -322 401 -25 122 -44 170 -78 203 -70 67 -159 77
-681 77 l-403 0 5 -277z"/>
<path d="M2278 400 c-125 -10 -207 -31 -234 -61 -26 -29 -23 -105 7 -158 66
-118 295 -189 574 -178 215 8 386 59 465 138 59 60 69 137 23 181 -35 33 -68
46 -163 64 -92 17 -523 26 -672 14z"/>
</g>
</svg>
