<svg aria-hidden="true" style="position: absolute; width: 0; height: 0; overflow: hidden;" version="1.1" xmlns="http://www.w3.org/2000/svg" xmlns:xlink="http://www.w3.org/1999/xlink">
<defs>
<symbol id="apples" viewBox="0 0 32 32">
<path fill="#ffa5ba" style="fill: var(--color1, #ffa5ba)" d="M29.632 21.408c-0.475-0.192-1.025-0.303-1.602-0.303-0.595 0-1.162 0.119-1.679 0.333l0.029-0.011c0.117-0.97 0.542-1.824 1.172-2.478l-0.001 0.001c0.21-0.195 0.341-0.473 0.341-0.781 0-0.588-0.477-1.064-1.064-1.064-0.28 0-0.534 0.108-0.724 0.284l0.001-0.001c-1.229 1.139-1.709 2.752-1.875 4.077-0.32-0.141-0.672-0.256-1.056-0.307l1.888-9.83c0.013-0.062 0.020-0.132 0.020-0.205 0-0.587-0.476-1.062-1.062-1.062-0 0-0 0-0.001 0h-0.205c0.096-0.499 0.141-0.998 0.134-1.472-0.013-1.99-0.896-3.494-2.368-4.013-0.498-0.203-1.075-0.321-1.68-0.321-0.663 0-1.294 0.142-1.862 0.396l0.029-0.012c0.147-0.973 0.499-2.061 1.28-2.797 0.222-0.196 0.361-0.481 0.361-0.798 0-0.587-0.476-1.062-1.062-1.062-0.287 0-0.548 0.114-0.739 0.299l0-0c-1.318 1.229-1.811 2.97-1.984 4.39-0.544-0.262-1.183-0.415-1.858-0.415-0.298 0-0.59 0.030-0.871 0.087l0.028-0.005c-1.094-1.568-2.618-2.291-4.096-1.939-1.217 0.253-2.235 0.962-2.889 1.936l-0.010 0.016c-0.41-0.896-0.704-1.997-0.448-3.034 0.020-0.078 0.032-0.167 0.032-0.259 0-0.589-0.477-1.066-1.066-1.066-0.496 0-0.914 0.34-1.032 0.799l-0.002 0.007c-0.442 1.747 0.096 3.475 0.73 4.755-1.264 0.192-2.338 0.88-3.037 1.855l-0.009 0.014c-0.419 0.555-0.672 1.257-0.672 2.018 0 0.242 0.025 0.478 0.074 0.705l-0.004-0.022c-0.411 0.153-0.698 0.542-0.698 0.998 0 0.073 0.007 0.143 0.021 0.212l-0.001-0.007 3.808 19.808c0.096 0.499 0.538 0.864 1.050 0.864h15.232c0.512 0 0.954-0.365 1.050-0.864l0.038-0.192c0.288 0.192 0.595 0.358 0.928 0.486 1.261 0.467 2.445 0.275 3.040 0.115 0.32 0.083 0.794 0.179 1.363 0.179 0.512 0 1.088-0.077 1.683-0.294 2.362-0.883 3.616-3.84 3.597-6.182-0.019-1.901-0.87-3.334-2.278-3.84zM22.675 12.192c-0.493 4.704-4.454 7.91-9.971 7.91s-9.478-3.206-9.971-7.91h19.942zM16.032 7.52c0.18 0.335 0.528 0.559 0.928 0.559s0.748-0.224 0.925-0.554l0.003-0.006c0.032-0.051 0.294-0.474 0.774-0.781 0.627-0.41 1.344-0.461 2.202-0.16 0.851 0.301 0.954 1.517 0.96 2.029 0 0.461-0.064 0.96-0.192 1.453h-7.13c0.237-1.19 0.096-2.496-0.288-3.667 0.393 0.022 0.753 0.148 1.057 0.35l-0.008-0.005c0.309 0.205 0.565 0.463 0.762 0.764l0.006 0.010zM3.078 8.717c0.55-0.717 1.184-1.069 1.933-1.069 0.576 0 1.018 0.211 1.069 0.23 0.339 0.192 0.749 0.173 1.075-0.032 0.333-0.211 0.512-0.595 0.48-0.986 0-0.077-0.115-1.894 1.984-2.4 0.877-0.211 1.626 0.755 1.907 1.178 0.806 1.222 1.222 3.11 0.781 4.416h-9.35c-0.141-0.448-0.179-0.941 0.122-1.338zM5.85 29.862l-2.112-10.976c0.141 0.128 0.282 0.262 0.429 0.384 2.208 1.907 5.242 2.95 8.538 2.95s6.33-1.043 8.538-2.944l0.147-0.134-0.429 2.24-0.064 0.019c-1.408 0.506-2.259 1.939-2.272 3.84-0.013 1.165 0.294 2.483 0.896 3.622l-0.192 0.998h-13.478zM27.565 29.44c-0.286 0.099-0.617 0.156-0.96 0.156s-0.674-0.057-0.981-0.162l0.021 0.006c-0.114-0.046-0.246-0.073-0.384-0.073s-0.27 0.027-0.391 0.076l0.007-0.003c-0.006 0.006-0.96 0.352-1.92 0-1.331-0.499-2.214-2.56-2.202-4.166 0-0.467 0.090-1.581 0.858-1.85 0.346-0.128 0.659-0.173 0.934-0.173 0.757 0.002 1.418 0.409 1.78 1.015l0.005 0.009c0.18 0.335 0.528 0.559 0.928 0.559s0.748-0.224 0.925-0.554l0.003-0.006c0.16-0.269 0.979-1.472 2.726-0.851 0.768 0.269 0.851 1.382 0.858 1.85 0.013 1.606-0.87 3.667-2.208 4.16z"></path>
</symbol>
<symbol id="arrow-right" viewBox="0 0 32 32">
<path d="M0 16c0 1.747 1.418 3.165 3.165 3.165h18.014l-4.871 4.871c-1.315 1.326-1.377 3.391-0.144 4.624s3.309 1.182 4.624-0.144l10.173-10.173c1.326-1.315 1.398-3.391 0.154-4.624l-0.103-0.082-0.113-0.144-10.040-10.030c-0.594-0.62-1.429-1.005-2.354-1.005-0.868 0-1.657 0.34-2.241 0.894l0.001-0.001c-0.555 0.583-0.897 1.374-0.897 2.245 0 0.922 0.383 1.755 0.999 2.347l0.001 0.001 4.891 4.891h-18.076c-0.006-0-0.013-0-0.021-0-1.748 0-3.165 1.417-3.165 3.165 0 0 0 0 0 0v0z"></path>
</symbol>
<symbol id="arrow-up" viewBox="0 0 32 32">
<path d="M27.41 12.59l-10-10c-0.361-0.359-0.86-0.582-1.41-0.582s-1.049 0.222-1.41 0.582l-10 10c-0.462 0.37-0.756 0.934-0.756 1.566 0 1.105 0.895 2 2 2 0.633 0 1.197-0.294 1.563-0.752l0.003-0.004 6.6-6.57v19.17c0 1.105 0.895 2 2 2s2-0.895 2-2v0-19.17l6.59 6.58c0.361 0.359 0.86 0.582 1.41 0.582s1.049-0.222 1.41-0.582l-0 0c0.359-0.361 0.582-0.86 0.582-1.41s-0.222-1.049-0.582-1.41l0 0z"></path>
</symbol>
<symbol id="check" viewBox="0 0 32 32">
<path fill="#fff" style="fill: var(--color3, #fff); stroke: var(--color3, #fff)" stroke="currentColor" stroke-linejoin="miter" stroke-linecap="butt" stroke-miterlimit="4" stroke-width="0.4923" d="M4.817 15.389l-0.169-0.162-2.544 2.41 8.962 8.55 18.829-17.962-2.527-2.411-16.302 15.536-6.249-5.962z"></path>
</symbol>
<symbol id="close" viewBox="0 0 32 32">
<path fill="none" stroke="currentColor" style="stroke: currentColor" stroke-linejoin="miter" stroke-linecap="butt" stroke-miterlimit="4" stroke-width="2" d="M2.52 2l26.96 28M2 29.48l28-26.96"></path>
</symbol>
<symbol id="email" viewBox="0 0 32 32">
<path d="M26.667 5.333h-21.333c-1.467 0-2.653 1.2-2.653 2.667l-0.013 16c0 1.467 1.2 2.667 2.667 2.667h21.333c1.467 0 2.667-1.2 2.667-2.667v-16c0-1.467-1.2-2.667-2.667-2.667zM26.133 11l-9.427 5.893c-0.427 0.267-0.987 0.267-1.413 0l-9.427-5.893c-0.333-0.213-0.533-0.573-0.533-0.96 0-0.893 0.973-1.427 1.733-0.96l8.933 5.587 8.933-5.587c0.76-0.467 1.733 0.067 1.733 0.96 0 0.387-0.2 0.747-0.533 0.96z"></path>
</symbol>
<symbol id="facebook" viewBox="0 0 32 32">
<path d="M22.138 15.971h-4.029v14.865h-6.109v-14.865h-2.909v-5.236h2.909v-3.36c0-2.429 1.135-6.211 6.167-6.211l4.524 0.015v5.076h-3.287c-0.538 0-1.295 0.276-1.295 1.425v3.069h4.567l-0.538 5.222z"></path>
</symbol>
<symbol id="github" viewBox="0 0 32 32">
<path d="M16 0c-8.8 0-16 7.2-16 16 0 7.504 5.264 14.304 12.256 16v-5.28c-0.265 0.064-0.569 0.1-0.882 0.1-1.47 0-2.752-0.806-3.428-2l-0.010-0.020c-0.368-0.64-1.008-1.28-1.68-1.248l-0.16-1.856c1.44-0.128 2.704 0.88 3.44 2.128 0.336 0.56 0.72 0.896 1.216 1.040 0.48 0.128 0.976 0.064 1.568-0.144 0.16-1.184 0.688-1.632 1.104-2.24v-0.016c-4.16-0.624-5.824-2.832-6.496-4.576-0.274-0.739-0.433-1.593-0.433-2.483 0-1.728 0.597-3.317 1.596-4.572l-0.011 0.015c0.032-0.032 0.080-0.128 0.064-0.192-0.72-2.144 0.16-3.92 0.176-4.096 0.816 0.24 0.96-0.256 3.552 1.328l0.448 0.272c0.192 0.112 0.128 0.048 0.32 0.032 1.088-0.288 2.24-0.448 3.36-0.48 1.136 0.032 2.272 0.192 3.408 0.48l0.144 0.032 0.128-0.064c3.248-1.968 3.136-1.328 4-1.6 0.032 0.176 0.88 1.984 0.176 4.096-0.096 0.288 2.816 2.944 1.216 7.232-0.672 1.744-2.32 3.952-6.496 4.576 0.528 0.816 1.184 1.248 1.168 2.928v6.608c6.992-1.696 12.256-8.496 12.256-16 0-8.8-7.2-16-16-16z"></path>
</symbol>
<symbol id="heart" viewBox="0 0 32 32">
<path fill="#ffa5ba" style="fill: var(--color1, #ffa5ba); stroke: var(--color1, #ffa5ba)" stroke="#ffa5ba" stroke-linejoin="miter" stroke-linecap="butt" stroke-miterlimit="4" stroke-width="0.3077" d="M2.511 11.163c0.634 2.826 2.028 5.261 3.955 7.155l0.002 0.002c1.668 1.734 3.663 3.139 5.888 4.12l0.119 0.047 1.237 0.585v8.468h1.735v-7.902l0.16 0.049c0.234 0.062 0.566 0.062 0.8 0l0.16-0.049v7.902h1.723v-8.48l1.175-0.535c2.337-1.037 4.332-2.432 6.010-4.139l0.003-0.003c2.782-2.831 4.215-6.055 4.215-9.563 0.012-3.846-2.012-6.997-5.212-8.074-0.689-0.24-1.058-0.277-2.314-0.265M2.511 11.163l13.618-8.308-0.098-0.074M2.511 11.163c-0.129-0.653-0.204-1.404-0.204-2.172 0-0.037 0-0.074 0.001-0.11l-0 0.006c0-0.818 0.062-1.637 0.191-2.203 0.726-3.188 2.948-5.551 5.822-6.154M2.511 11.163l5.809-10.634M22.166 0.48v0zM22.166 0.48c-0.658 0.006-1.071 0.025-1.446 0.074-1.663 0.311-3.13 0.989-4.368 1.949l0.023-0.017-0.345 0.295M16.031 2.782l-0.542-0.4c-1.674-1.231-3.385-1.828-5.397-1.908-0.351-0.012-0.72-0.012-1.040 0-0.308 0-0.585 0.025-0.732 0.062M16.031 2.782l-7.711-2.252M15.003 4.234c-0.234-0.234-0.665-0.542-1.138-0.831-0.379-0.248-0.817-0.489-1.274-0.695l-0.062-0.025c-0.345-0.135-1.015-0.326-1.502-0.418-1.969-0.363-3.489 0.025-4.825 1.212-0.383 0.346-0.721 0.729-1.013 1.147l-0.014 0.022c0.204 0.048 0.595 0.119 0.988 0.182l0.163 0.021c1.231 0.185 2.185 0.449 3.212 0.942 1.015 0.492 2.098 1.212 3.588 2.326 0.609 0.468 1.631 1.065 2.652 1.538v0.006c0.77 0.379 1.316 0.672 1.854 0.978l-0.186-0.098c0.095 0.059 0.175 0.116 0.252 0.177l-0.006-0.005c0.273 0.282 0.453 0.655 0.492 1.070l0.001 0.007c0.086 0.511 0.105 1.28 0.105 2.566 0 1.169 0 1.785 0.031 2.135 0.018 0.178 0.037 0.271 0.062 0.332s0.049 0.092 0.098 0.135c0.246 0.246 0.578 0.234 0.763 0.031 0.049-0.055 0.098-0.135 0.123-0.462 0.031-0.314 0.037-0.837 0.037-1.723 0-1.169 0.031-1.883 0.16-2.375 0.062-0.246 0.16-0.449 0.289-0.615 0.129-0.178 0.295-0.32 0.492-0.468 0.197-0.142 0.369-0.234 0.646-0.308 0.271-0.068 0.64-0.123 1.237-0.191 1.865-0.209 2.942-0.449 4.234-0.942 0.406-0.148 0.702-0.265 0.923-0.369 0.228-0.105 0.363-0.185 0.443-0.271 0.076-0.081 0.126-0.188 0.135-0.306l0-0.002c0.001-0.057 0.002-0.123 0.002-0.19 0-0.747-0.093-1.473-0.267-2.166l0.013 0.061c-0.714-2.683-2.923-4.554-5.323-4.554-1.785 0-3.963 0.837-5.311 2.055-0.222 0.197-0.406 0.351-0.572 0.462-0.137 0.101-0.306 0.168-0.488 0.184l-0.004 0c-0.172 0-0.332-0.055-0.492-0.154-0.154-0.098-0.32-0.246-0.517-0.431zM10.862 8.597c-1.231-0.917-2.585-1.588-3.766-1.877-0.739-0.175-1.602-0.297-2.486-0.337l-0.031-0.001c-0.078 0-0.155 0.007-0.23 0.020l0.008-0.001c-0.049 0.098-0.105 0.265-0.148 0.492-0.117 0.591-0.184 1.27-0.184 1.964 0 0.309 0.013 0.616 0.039 0.918l-0.003-0.039c0.314 2.929 1.588 5.403 4.031 7.748 1.944 1.861 4.299 3.31 6.915 4.195l0.132 0.039 0.862 0.308 0.874-0.308c2.65-0.916 4.929-2.285 6.86-4.033l-0.017 0.015c1.249-1.169 1.889-1.969 2.708-3.372h0.006c0.482-0.859 0.907-1.857 1.221-2.902l0.028-0.107c-1.556 0.625-3.36 1.065-5.241 1.238l-0.076 0.006-0.062 0.006c-0.32 0.031-0.548 0.049-0.714 0.092s-0.246 0.105-0.308 0.215c-0.068 0.123-0.111 0.326-0.129 0.677-0.018 0.32-0.018 0.738-0.018 1.311v0.123c0 1.095-0.012 1.742-0.092 2.185-0.043 0.222-0.105 0.394-0.191 0.554-0.094 0.157-0.202 0.292-0.326 0.412l-0.001 0.001c-0.24 0.246-0.474 0.431-0.738 0.542-0.258 0.117-0.542 0.166-0.868 0.166-0.498 0-0.923-0.098-1.286-0.32-0.367-0.239-0.652-0.574-0.825-0.97l-0.006-0.014c-0.105-0.222-0.166-0.431-0.203-0.862-0.031-0.425-0.037-1.065-0.037-2.154 0-0.911-0.012-1.538-0.031-1.957-0.015-0.229-0.043-0.44-0.085-0.646l0.005 0.030-0.025-0.018c-0.26-0.16-0.571-0.324-0.892-0.47l-0.055-0.023c-1.201-0.521-2.232-1.11-3.19-1.795l0.052 0.035c0.623 0.427 0.142 0.071-0.34-0.284l-1.137-0.799z"></path>
</symbol>
<symbol id="home" viewBox="0 0 32 32">
<path d="M31.6 16.773c0.259-0.244 0.42-0.589 0.42-0.972 0-0.444-0.217-0.837-0.55-1.079l-0.004-0.003-14.293-11.653c-0.315-0.252-0.72-0.404-1.16-0.404s-0.845 0.152-1.164 0.407l0.004-0.003-14.347 12.293c-0.32 0.246-0.524 0.629-0.524 1.060 0 0.394 0.171 0.748 0.443 0.992l0.001 0.001 0.373 0.347c0.587 0.587 1.547 0.64 2.133 0.16l1.067-0.907v13.12c0 0.8 0.72 1.467 1.6 1.467h5.573c0.853 0 1.547-0.667 1.547-1.467v-9.2h7.147v9.173c0 0.8 0.613 1.467 1.467 1.467h5.92c0.88 0 1.573-0.667 1.573-1.467v-12.933s0.267 0.267 0.667 0.533c0.347 0.32 1.12 0.080 1.707-0.533l0.4-0.4z"></path>
</symbol>
<symbol id="icecream" viewBox="0 0 32 32">
<path fill="#ffa5ba" style="fill: var(--color1, #ffa5ba)" d="M7.776 0.141c-0.352 0.192-0.557 0.563-0.557 1.011 0.006 0.813 0.211 1.555 0.614 2.195l0.179 0.294-0.339 0.384c-0.384 0.422-0.474 0.576-0.64 1.088-0.073 0.256-0.116 0.55-0.116 0.853 0 0.258 0.030 0.509 0.088 0.749l-0.004-0.022c0.32 1.152 1.36 1.983 2.594 1.983 0.719 0 1.373-0.283 1.855-0.743l-0.001 0.001 0.378-0.314 0.346 0.179c0.198 0.096 0.531 0.243 0.742 0.32l0.384 0.141v0.704c0 1.101 0.224 1.76 0.813 2.355 0.576 0.589 1.498 0.896 2.285 0.762 0.57-0.102 1.12-0.384 1.491-0.768 0.589-0.589 0.813-1.248 0.813-2.355v-0.698l0.384-0.134c0.211-0.083 0.544-0.23 0.742-0.326l0.346-0.179 0.378 0.32c0.481 0.459 1.135 0.742 1.854 0.742 1.234 0 2.274-0.831 2.59-1.964l0.005-0.019c0.128-0.429 0.115-1.178-0.026-1.587-0.123-0.429-0.348-0.796-0.646-1.088l-0-0-0.339-0.384 0.179-0.294c0.403-0.64 0.608-1.382 0.614-2.195 0-0.448-0.205-0.819-0.557-1.011l-0.256-0.141h-15.936l-0.262 0.141zM22.509 2.099c0 0.019-0.179 0.314-0.397 0.666-0.653 1.024-0.627 1.254 0.237 2.17 0.314 0.326 0.602 0.659 0.64 0.736 0.237 0.461-0.23 1.037-0.742 0.915-0.128-0.026-0.397-0.243-0.787-0.627-0.787-0.774-1.056-0.864-1.664-0.518-0.571 0.342-1.233 0.653-1.925 0.898l-0.078 0.024c-0.608 0.173-0.813 0.307-0.973 0.64-0.128 0.256-0.141 0.358-0.141 1.363 0 1.229-0.051 1.427-0.403 1.6-0.256 0.128-0.301 0.128-0.55 0-0.352-0.173-0.403-0.371-0.403-1.6 0-1.005-0.006-1.107-0.128-1.363-0.173-0.326-0.384-0.467-0.986-0.64-0.531-0.147-1.306-0.493-1.741-0.774-0.403-0.262-0.762-0.365-1.043-0.314-0.179 0.038-0.365 0.186-0.858 0.666-0.403 0.39-0.691 0.621-0.819 0.646-0.512 0.122-0.973-0.461-0.742-0.915 0.045-0.077 0.333-0.41 0.646-0.736 0.864-0.915 0.896-1.139 0.237-2.176-0.218-0.346-0.397-0.64-0.397-0.659 0-0.026 2.931-0.038 6.509-0.038 3.584 0 6.509 0.013 6.509 0.038zM5.926 13.203c-0.32 0.218-0.486 0.512-0.486 0.845 0 0.224 3.117 16.928 3.232 17.28 0.051 0.192 0.282 0.422 0.518 0.544 0.23 0.128 0.384 0.128 6.81 0.128 6.419 0 6.579 0 6.81-0.128 0.237-0.128 0.467-0.352 0.518-0.544 0.115-0.352 3.232-17.056 3.232-17.28 0-0.326-0.173-0.627-0.486-0.845l-0.205-0.141h-19.738l-0.205 0.141zM24.128 15.488c-0.064 0.499-0.416 1.587-0.678 2.080-1.28 2.374-3.712 3.821-6.733 3.987-2.278 0.128-4.205-0.333-5.824-1.395-0.935-0.625-1.694-1.441-2.235-2.397l-0.018-0.035c-0.341-0.647-0.61-1.397-0.766-2.187l-0.009-0.053-0.045-0.358h16.358l-0.045 0.358zM9.83 21.92c2.63 1.773 6.566 2.24 9.882 1.165 1.107-0.352 2.24-0.954 3.181-1.683 0.275-0.218 0.294-0.218 0.269-0.083l-0.806 4.243-0.8 4.23-0.032 0.147h-11.046l-0.032-0.147-0.8-4.224-0.806-4.25c-0.026-0.134-0.006-0.134 0.269 0.083 0.16 0.128 0.486 0.352 0.723 0.512z"></path>
</symbol>
<symbol id="ice-cream-svgrepo-com" viewBox="0 0 32 32">
<path d="M31.448 20.69h-0.552v-3.034c0-1.321-1.676-3.504-2.011-3.928-0.102-0.128-0.257-0.209-0.432-0.21h-2.459l3.187-6.373c0.038-0.072 0.060-0.158 0.060-0.249 0-0.304-0.246-0.55-0.55-0.55-0.001 0-0.002 0-0.003 0h-1.004c0.622-0.642 1.005-1.517 1.006-2.483v-0c0-1.977-1.608-3.586-3.586-3.586s-3.586 1.608-3.586 3.586c0 0.963 0.385 1.838 1.004 2.483h-1.004c-0.305 0-0.551 0.247-0.551 0.552 0 0.090 0.021 0.174 0.059 0.249l-0.001-0.003 3.187 6.375h-3.797c-0.305 0-0.552 0.247-0.552 0.552v0 6.621h-1.103v-13.241c0-0.305-0.247-0.552-0.552-0.552v0h-17.655c-0.305 0-0.552 0.247-0.552 0.552v0 20.966c0 0.305 0.247 0.552 0.552 0.552v0h1.706c0.263 1.564 1.624 2.759 3.26 2.759s2.997-1.195 3.26-2.759h13.342c0.263 1.564 1.624 2.759 3.26 2.759s2.997-1.195 3.26-2.759h2.809c0.305 0 0.552-0.247 0.552-0.552v0-7.172c0-0.305-0.247-0.552-0.552-0.552v0zM9.931 8h3.31v4.411c0 0.914-0.742 1.658-1.655 1.658s-1.655-0.744-1.655-1.658v-4.411zM5.517 8h3.31v4.411c0 0.914-0.742 1.658-1.655 1.658s-1.655-0.744-1.655-1.658v-4.411zM1.103 8h3.31v4.411c0 0.914-0.742 1.658-1.655 1.658s-1.655-0.744-1.655-1.658v-4.411zM5.517 30.621c-1.217 0-2.207-0.99-2.207-2.207s0.99-2.207 2.207-2.207 2.207 0.99 2.207 2.207-0.99 2.207-2.207 2.207zM17.655 21.241v6.621h-8.875c0-0.013-0.006-0.024-0.008-0.036-0.071-0.388-0.2-0.733-0.379-1.047l0.008 0.016-0.038-0.063c-0.096-0.162-0.194-0.301-0.302-0.431l0.004 0.006-0.009-0.013c-0.11-0.132-0.233-0.255-0.364-0.369l-0.043-0.039c-0.129-0.109-0.268-0.205-0.41-0.293l-0.074-0.044c-0.126-0.074-0.274-0.147-0.427-0.208l-0.022-0.008-0.082-0.032c-0.138-0.052-0.304-0.1-0.476-0.134l-0.021-0.003-0.066-0.009c-0.166-0.031-0.358-0.049-0.554-0.050h-0.001c-0.197 0.001-0.39 0.020-0.577 0.053l0.020-0.003-0.065 0.009c-0.172 0.032-0.336 0.080-0.497 0.139l-0.082 0.030c-0.176 0.069-0.325 0.142-0.467 0.224l0.016-0.008-0.072 0.044c-0.143 0.088-0.281 0.184-0.41 0.293l-0.043 0.039c-0.131 0.113-0.252 0.236-0.364 0.369l-0.009 0.011c-0.11 0.134-0.21 0.277-0.3 0.429l-0.036 0.061c-0.17 0.297-0.299 0.642-0.367 1.009l-0.003 0.020c-0.002 0.014-0.008 0.025-0.009 0.038h-1.149v-13.256c0.453 0.351 1.029 0.564 1.655 0.566h0.001c0.906 0 1.704-0.445 2.207-1.121 0.504 0.676 1.302 1.121 2.207 1.121 0.906 0 1.702-0.445 2.207-1.122 0.504 0.678 1.302 1.122 2.207 1.122s1.702-0.445 2.207-1.122c0.504 0.678 1.302 1.122 2.207 1.122 0.624 0 1.193-0.216 1.655-0.568v6.636zM17.655 12.411c0 0.914-0.742 1.658-1.655 1.658s-1.655-0.744-1.655-1.658v-4.411h3.31v4.411zM27.034 14.621h1.148c0.683 0.902 1.611 2.36 1.611 3.034v3.034h-2.759v-6.069zM25.103 12.835l-0.449-0.899 1.365-0.933-0.916 1.832zM25.103 1.379c1.37 0 2.483 1.114 2.483 2.483s-1.114 2.483-2.483 2.483-2.483-1.113-2.483-2.483 1.113-2.483 2.483-2.483zM22.409 7.448h3.038l-2.459 1.159-0.579-1.159zM24.156 10.941l-0.673-1.348 4.24-1.997-0.687 1.373-2.88 1.97zM20.966 14.621h4.966v6.069h-4.966v-6.069zM25.379 30.621c-1.217 0-2.207-0.99-2.207-2.207s0.99-2.207 2.207-2.207 2.207 0.99 2.207 2.207-0.99 2.207-2.207 2.207zM30.897 27.862h-2.253c-0.002-0.013-0.008-0.024-0.009-0.036-0.071-0.388-0.2-0.733-0.379-1.047l0.008 0.016-0.038-0.063c-0.096-0.162-0.194-0.301-0.302-0.431l0.004 0.006-0.009-0.013c-0.11-0.132-0.233-0.255-0.363-0.369l-0.044-0.039c-0.129-0.109-0.266-0.205-0.41-0.293l-0.073-0.044c-0.126-0.074-0.275-0.147-0.429-0.208l-0.022-0.008-0.082-0.032c-0.138-0.052-0.304-0.1-0.476-0.134l-0.021-0.003-0.065-0.009c-0.181-0.032-0.366-0.050-0.556-0.050s-0.374 0.019-0.555 0.050l-0.066 0.009c-0.17 0.032-0.336 0.080-0.497 0.139l-0.082 0.030c-0.156 0.060-0.306 0.132-0.449 0.216l-0.074 0.044c-0.142 0.088-0.281 0.184-0.41 0.293l-0.043 0.039c-0.131 0.113-0.252 0.236-0.364 0.369l-0.009 0.011c-0.11 0.134-0.208 0.277-0.298 0.429-0.013 0.020-0.025 0.039-0.036 0.061-0.171 0.297-0.3 0.642-0.369 1.009l-0.003 0.020c-0.002 0.014-0.006 0.025-0.009 0.038h-3.356v-6.069h7.172v0.020h1.103v-0.020h3.862v6.069z"></path>
<path d="M23.724 22.345h2.207v1.103h-2.207zM1.655 16.276v7.172c0 0.305 0.247 0.552 0.552 0.552v0h14.345c0.305 0 0.552-0.247 0.552-0.552v0-7.172c0-0.305-0.247-0.552-0.552-0.552v0h-14.345c-0.305 0-0.552 0.247-0.552 0.552v0zM2.759 16.828h13.241v6.069h-13.241v-6.069z"></path>
<path d="M4.575 18.093l-0.552 0.552c-0.11 0.101-0.179 0.246-0.179 0.406 0 0.305 0.247 0.552 0.552 0.552 0.161 0 0.306-0.069 0.407-0.179l0-0 0.552-0.552c0.11-0.101 0.179-0.246 0.179-0.406 0-0.305-0.247-0.552-0.552-0.552-0.161 0-0.306 0.069-0.407 0.179l-0 0z"></path>
</symbol>
<symbol id="instagram" viewBox="0 0 32 32">
<path d="M31.968 9.408c-0.024-1.403-0.292-2.735-0.763-3.968l0.027 0.080c-0.427-1.109-1.058-2.054-1.854-2.83l-0.002-0.002c-0.8-0.8-1.76-1.44-2.832-1.84-1.151-0.448-2.483-0.721-3.875-0.752l-0.013-0c-1.458-0.070-3.167-0.109-4.885-0.109-0.6 0-1.199 0.005-1.797 0.014l0.090-0.001c-4.352 0-4.896 0.016-6.592 0.096-1.712 0.064-2.88 0.352-3.888 0.736-1.107 0.432-2.051 1.063-2.831 1.855l-0.001 0.001c-0.793 0.781-1.424 1.725-1.837 2.778l-0.019 0.054c-0.443 1.152-0.711 2.485-0.736 3.877l-0 0.011c-0.070 1.458-0.109 3.167-0.109 4.885 0 0.6 0.005 1.199 0.014 1.797l-0.001-0.090c0 4.352 0 4.896 0.080 6.592 0.030 1.405 0.303 2.737 0.779 3.968l-0.027-0.080c0.4 1.072 1.040 2.032 1.856 2.832 0.781 0.793 1.725 1.424 2.778 1.837l0.054 0.019c1.008 0.384 2.176 0.656 3.872 0.736 1.712 0.080 2.24 0.096 6.592 0.096s4.896-0.016 6.608-0.096c1.397-0.026 2.724-0.294 3.952-0.763l-0.080 0.027c2.16-0.851 3.837-2.528 4.669-4.633l0.019-0.055c0.384-1.024 0.672-2.176 0.736-3.888 0.080-1.696 0.096-2.24 0.096-6.592 0-4.336 0-4.88-0.080-6.592zM29.088 22.48c-0.064 1.552-0.32 2.4-0.544 2.96-0.552 1.401-1.639 2.488-3.004 3.027l-0.036 0.013c-0.56 0.224-1.424 0.48-2.976 0.544-1.68 0.080-2.192 0.096-6.464 0.096-0.465 0.007-1.013 0.011-1.562 0.011-1.724 0-3.439-0.039-5.144-0.116l0.242 0.009c-1.568-0.064-2.4-0.32-2.96-0.544-0.722-0.271-1.337-0.68-1.839-1.199l-0.001-0.001c-0.518-0.5-0.926-1.108-1.189-1.79l-0.011-0.034c-0.336-0.884-0.535-1.905-0.544-2.972l-0-0.004c-0.068-1.463-0.107-3.179-0.107-4.903 0-0.549 0.004-1.097 0.012-1.643l-0.001 0.083c0-4.272 0.016-4.784 0.096-6.464 0.064-1.568 0.32-2.4 0.544-2.976 0.256-0.688 0.656-1.312 1.2-1.824 0.504-0.519 1.118-0.928 1.806-1.189l0.034-0.011c0.56-0.224 1.408-0.48 2.976-0.544 1.68-0.080 2.192-0.096 6.448-0.096 4.288 0 4.8 0 6.464 0.096 1.568 0.064 2.4 0.32 2.976 0.544 0.688 0.256 1.328 0.656 1.84 1.2 0.528 0.512 0.944 1.136 1.2 1.824 0.208 0.576 0.48 1.424 0.544 2.976 0.080 1.68 0.096 2.192 0.096 6.464s-0.016 4.768-0.096 6.464z"></path>
<path d="M16.064 7.776c-4.542 0-8.224 3.682-8.224 8.224s3.682 8.224 8.224 8.224v0c4.542 0 8.224-3.682 8.224-8.224s-3.682-8.224-8.224-8.224v0zM16.064 21.328c-2.943 0-5.328-2.385-5.328-5.328s2.385-5.328 5.328-5.328v0c2.943 0 5.328 2.385 5.328 5.328s-2.385 5.328-5.328 5.328v0zM26.528 7.456c0 1.060-0.86 1.92-1.92 1.92s-1.92-0.86-1.92-1.92v0c0-1.060 0.86-1.92 1.92-1.92s1.92 0.86 1.92 1.92v0z"></path>
</symbol>
<symbol id="linkedin" viewBox="0 0 32 32">
<path d="M32 32v-11.744c0-5.728-1.232-10.16-7.952-10.16-0.076-0.003-0.166-0.005-0.256-0.005-2.555 0-4.788 1.376-5.999 3.428l-0.018 0.032h-0.096v-2.912h-6.368v21.36h6.64v-10.576c0-2.784 0.528-5.488 3.968-5.488 3.408 0 3.456 3.184 3.456 5.664v10.4h6.624zM0.528 10.64h6.64v21.36h-6.64v-21.36zM3.84 0c-2.121 0-3.84 1.719-3.84 3.84v0c-0 0.005-0 0.010-0 0.016 0 2.127 1.715 3.854 3.838 3.872h0.002c2.128 0 3.84-1.76 3.84-3.888 0-2.121-1.719-3.84-3.84-3.84v0z"></path>
</symbol>
<symbol id="logo" viewBox="0 0 127 32">
<path fill="#fff" style="fill: var(--color1, #fff)" d="M31.36 16.32c0 8.66-6.877 15.68-15.36 15.68s-15.36-7.020-15.36-15.68c0-8.66 6.877-15.68 15.36-15.68s15.36 7.020 15.36 15.68z"></path>
<path fill="#d41443" style="fill: var(--color2, #d41443)" d="M11.846 0.563c-7.405 2.24-11.846 8.070-11.846 15.437 0 6.016 3.091 11.277 8.179 13.901 2.637 1.344 3.027 0.384 0.576-1.472-1.734-1.408-2.061-2.048-2.061-4.422 0-1.664-0.384-3.008-0.96-3.52-1.165-0.96-1.293-3.462-0.128-4.358 0.448-0.384 0.896-1.664 0.96-2.822 0.32-4.224 4.896-8.198 9.472-8.198 4.57 0 9.139 3.968 9.466 8.198 0.064 1.152 0.512 2.432 0.96 2.816 1.165 0.896 1.037 3.398-0.128 4.358-0.576 0.512-0.96 1.856-0.96 3.52 0 2.374-0.32 3.014-2.067 4.429-2.701 2.112-1.926 2.88 1.101 1.024 4.25-2.618 7.398-8.333 7.398-13.389 0-10.118-10.56-18.323-19.968-15.501z"></path>
<path fill="#d41443" style="fill: var(--color2, #d41443)" d="M12.685 8c-1.152 0.512-2.125 1.152-2.125 1.536 0 0.704 3.482 1.984 5.472 1.984 1.997 0 5.478-1.28 5.478-1.984 0-0.768-3.994-2.502-5.606-2.502-0.64 0.064-2.125 0.448-3.219 0.96zM45.85 11.328c-0.96 0.256-1.152 1.088-1.152 5.696v5.389h4.57l-0.192-5.574c-0.192-5.83-0.454-6.278-3.226-5.51zM53.389 11.648c-2.131 1.152-2.899 2.56-2.899 5.312 0 3.782 2.061 5.581 5.856 5.325 2.579-0.192 2.835-0.384 3.027-1.984 0.192-1.606 0.064-1.734-1.933-1.606-2.061 0.192-2.125 0.064-2.125-2.048s0.128-2.24 1.997-2.048c1.549 0.128 2.125-0.128 2.387-1.088 0.128-0.646 0-1.542-0.384-1.926-0.909-0.896-4.256-0.896-5.926 0.064zM61.050 11.712c-0.192 0.512-0.256 3.008-0.128 5.632l0.192 4.749h4.186c3.866 0 4.186-0.128 4.378-1.472 0.192-1.216-0.064-1.408-2.061-1.408-1.286 0-2.317-0.326-2.317-0.646 0-0.384 0.896-0.64 1.933-0.64 1.478 0 1.933-0.256 1.933-1.28s-0.448-1.28-1.933-1.28c-1.030 0-1.933-0.32-1.933-0.64 0-0.384 0.832-0.64 1.869-0.64 1.805 0 3.027-1.414 2.253-2.63-0.576-0.96-7.987-0.704-8.371 0.256zM73.99 11.52c-2.125 0.832-2.957 2.304-3.021 4.992-0.064 4.614 1.798 6.221 6.63 5.773 1.869-0.128 2.189-0.448 2.189-1.792 0-1.408-0.256-1.606-2.061-1.408-1.549 0.128-2.125-0.070-2.445-1.094-0.576-1.984 0.64-3.584 2.701-3.584 1.229 0 1.869-0.384 1.997-1.222 0.448-2.048-2.829-3.008-5.99-1.664zM81.92 11.264c-0.326 0.256-0.518 2.88-0.518 5.824v5.389l2.061-0.192c1.606-0.128 2.189-0.576 2.509-1.792l0.384-1.606 0.512 1.728c0.39 1.472 0.845 1.792 2.515 1.792 2.771 0 3.091-0.448 1.933-2.688-0.704-1.408-0.832-2.112-0.32-2.624 0.832-0.832 0.896-3.654 0.128-4.87-0.64-1.024-8.371-1.856-9.21-0.96zM87.194 14.72c0 0.704-0.256 1.28-0.64 1.28-0.32 0-0.646-0.576-0.646-1.28s0.32-1.28 0.64-1.28c0.384 0 0.646 0.576 0.646 1.28zM93.44 11.328c-0.256 0.192-0.448 2.816-0.448 5.76v5.325h4.186c4.058 0 4.186-0.064 4.186-1.6 0-1.344-0.32-1.6-1.933-1.6-1.030 0-1.933-0.326-1.933-0.646 0-0.384 0.704-0.64 1.613-0.64 1.152 0 1.606-0.32 1.606-1.28s-0.448-1.28-1.606-1.28c-0.902 0-1.613-0.32-1.613-0.64 0-0.384 0.902-0.64 1.933-0.64 1.606 0 1.933-0.256 1.933-1.606 0-1.536-0.192-1.6-3.738-1.6-2.061 0-3.994 0.192-4.186 0.448zM106.451 11.264c-1.158 0.32-4.122 8.838-3.546 10.253 0.512 1.28 3.418 1.152 4.186-0.192 0.576-1.088 0.646-1.088 1.805 0 1.485 1.28 4.704 1.472 4.704 0.256 0-0.384-0.646-2.95-1.485-5.574-1.286-4.23-1.67-4.806-3.027-4.934-0.896 0-2.061 0.064-2.637 0.192zM108.25 17.088c-0.192 0.64-0.32 0.256-0.32-0.768 0-1.088 0.128-1.536 0.32-1.152 0.128 0.448 0.128 1.344 0 1.92zM115.725 11.328c-0.576 0.192-0.838 1.984-0.838 5.696v5.389h1.869c1.606 0 1.926-0.32 2.189-1.792 0.256-1.67 0.256-1.67 0.768-0.32 0.256 0.832 0.902 1.472 1.357 1.472 0.512 0 1.222-0.64 1.542-1.472 0.512-1.35 0.576-1.35 0.576 0.384 0.070 1.6 0.262 1.792 2.067 1.6l1.997-0.192 0.064-5.318c0.128-4.934 0.064-5.318-1.286-5.638-2.061-0.512-3.802 0.704-4.384 3.072l-0.448 2.112-0.704-2.24c-0.909-3.008-2.259-3.776-4.768-2.752zM9.018 11.968c-0.192 0.256-0.384 1.088-0.384 1.92 0 1.472 0.064 1.472 7.398 1.472 7.347 0 7.411 0 7.411-1.472 0-2.176-0.582-2.432-2.643-1.408-2.317 1.216-7.213 1.216-9.536 0-1.024-0.512-1.99-0.704-2.246-0.512zM7.149 17.664c-1.030 1.094 0.704 1.542 5.728 1.542h5.414v2.24c0 1.216 0.32 2.24 0.64 2.24 0.384 0 0.64-0.96 0.64-2.176 0-2.112 0.134-2.24 2.579-2.432 1.421-0.128 2.579-0.512 2.579-0.832 0-0.704-16.87-1.28-17.581-0.576z"></path>
<path fill="#d41443" style="fill: var(--color2, #d41443)" d="M8.627 23.309c0 3.52 1.222 4.224 7.405 4.224s7.411-0.704 7.411-4.224c0-1.536-0.32-2.176-0.966-2.176-0.576 0-0.966 0.576-0.966 1.536 0 3.584-4.896 3.904-5.606 0.384-0.32-1.856-0.512-1.92-3.795-1.92h-3.482v2.176zM12.621 30.547c0.384 2.048 6.957 1.856 6.957-0.128 0-0.704-0.832-0.96-3.61-0.96-3.021 0-3.539 0.192-3.347 1.088z"></path>
</symbol>
<symbol id="menu" viewBox="0 0 32 32">
<path  stroke="currentColor" style="stroke: currentColor" stroke-linejoin="miter" stroke-linecap="butt" stroke-miterlimit="4" stroke-width="1.6" d="M0 6.4h32M0 16h32M0 25.6h32"></path>
</symbol>
<symbol id="person" viewBox="0 0 32 32">
<path d="M16 16c2.947 0 5.333-2.387 5.333-5.333s-2.387-5.333-5.333-5.333c-2.947 0-5.333 2.387-5.333 5.333s2.387 5.333 5.333 5.333zM16 18.667c-3.56 0-10.667 1.787-10.667 5.333v1.333c0 0.733 0.6 1.333 1.333 1.333h18.667c0.733 0 1.333-0.6 1.333-1.333v-1.333c0-3.547-7.107-5.333-10.667-5.333z"></path>
</symbol>
<symbol id="phone" viewBox="0 0 32 32">
<path d="M24.882 19.773l-3.268-0.373c-0.785-0.090-1.557 0.18-2.11 0.733l-2.367 2.367c-3.641-1.853-6.626-4.825-8.478-8.478l2.38-2.38c0.553-0.553 0.823-1.325 0.733-2.11l-0.373-3.242c-0.154-1.299-1.248-2.277-2.56-2.277h-2.226c-1.454 0-2.663 1.209-2.573 2.663 0.682 10.987 9.469 19.761 20.443 20.443 1.454 0.090 2.663-1.119 2.663-2.573v-2.226c0.013-1.299-0.965-2.393-2.264-2.547z"></path>
</symbol>
<symbol id="pointer" viewBox="0 0 32 32">
<path fill="none" stroke="currentColor" style="stroke: currentColor" stroke-linejoin="round" stroke-linecap="round" stroke-miterlimit="4" stroke-width="6.4" d="M5.184 3.2l14.144 12.8-14.144 12.8"></path>
</symbol>
<symbol id="telegram" viewBox="0 0 32 32">
<path d="M12.611 19.665l-0.495 6.444c0.713 0 1.018-0.276 1.382-0.611l3.287-2.938 6.836 4.655c1.236 0.655 2.124 0.32 2.458-1.062l4.465-19.607c0.393-1.731-0.669-2.4-1.891-1.978l-26.313 9.425c-1.789 0.64-1.76 1.571-0.291 2.007l6.72 1.949 15.636-9.12c0.727-0.465 1.396-0.204 0.844 0.247l-12.64 10.589z"></path>
</symbol>
</defs>
</svg>